<svg width="73" height="73" viewBox="0 0 73 73" fill="none" xmlns="http://www.w3.org/2000/svg">
<path d="M3.27928 0.837891H0.819824V3.29735H3.27928V0.837891Z" fill="black"/>
<path d="M3.27928 3.297H0.819824V5.75646H3.27928V3.297Z" fill="black"/>
<path d="M3.27928 5.7561H0.819824V8.21556H3.27928V5.7561Z" fill="black"/>
<path d="M3.27928 8.21661H0.819824V10.6761H3.27928V8.21661Z" fill="black"/>
<path d="M3.27928 10.6758H0.819824V13.1352H3.27928V10.6758Z" fill="black"/>
<path d="M3.27928 13.1349H0.819824V15.5943H3.27928V13.1349Z" fill="black"/>
<path d="M3.27928 15.594H0.819824V18.0535H3.27928V15.594Z" fill="black"/>
<path d="M3.27928 20.5136H0.819824V22.9731H3.27928V20.5136Z" fill="black"/>
<path d="M3.27928 22.9728H0.819824V25.4322H3.27928V22.9728Z" fill="black"/>
<path d="M3.27928 32.8106H0.819824V35.2701H3.27928V32.8106Z" fill="black"/>
<path d="M3.27928 42.6485H0.819824V45.108H3.27928V42.6485Z" fill="black"/>
<path d="M3.27928 47.5681H0.819824V50.0276H3.27928V47.5681Z" fill="black"/>
<path d="M3.27928 50.0273H0.819824V52.4867H3.27928V50.0273Z" fill="black"/>
<path d="M3.27928 54.9455H0.819824V57.405H3.27928V54.9455Z" fill="black"/>
<path d="M3.27928 57.406H0.819824V59.8655H3.27928V57.406Z" fill="black"/>
<path d="M3.27928 59.8651H0.819824V62.3246H3.27928V59.8651Z" fill="black"/>
<path d="M3.27928 62.3243H0.819824V64.7837H3.27928V62.3243Z" fill="black"/>
<path d="M3.27928 64.7834H0.819824V67.2428H3.27928V64.7834Z" fill="black"/>
<path d="M3.27928 67.2439H0.819824V69.7034H3.27928V67.2439Z" fill="black"/>
<path d="M3.27928 69.703H0.819824V72.1625H3.27928V69.703Z" fill="black"/>
<path d="M5.72313 0.837891H3.26367V3.29735H5.72313V0.837891Z" fill="black"/>
<path d="M5.72313 15.594H3.26367V18.0535H5.72313V15.594Z" fill="black"/>
<path d="M5.72313 20.5136H3.26367V22.9731H5.72313V20.5136Z" fill="black"/>
<path d="M5.72313 22.9728H3.26367V25.4322H5.72313V22.9728Z" fill="black"/>
<path d="M5.72313 27.8924H3.26367V30.3519H5.72313V27.8924Z" fill="black"/>
<path d="M5.72313 30.3515H3.26367V32.811H5.72313V30.3515Z" fill="black"/>
<path d="M5.72313 45.1076H3.26367V47.5671H5.72313V45.1076Z" fill="black"/>
<path d="M5.72313 47.5681H3.26367V50.0276H5.72313V47.5681Z" fill="black"/>
<path d="M5.72313 54.9455H3.26367V57.405H5.72313V54.9455Z" fill="black"/>
<path d="M5.72313 69.703H3.26367V72.1625H5.72313V69.703Z" fill="black"/>
<path d="M8.21141 0.837891H5.75195V3.29735H8.21141V0.837891Z" fill="black"/>
<path d="M8.21141 5.7561H5.75195V8.21556H8.21141V5.7561Z" fill="black"/>
<path d="M8.21141 8.21661H5.75195V10.6761H8.21141V8.21661Z" fill="black"/>
<path d="M8.21141 10.6758H5.75195V13.1352H8.21141V10.6758Z" fill="black"/>
<path d="M8.21141 15.594H5.75195V18.0535H8.21141V15.594Z" fill="black"/>
<path d="M8.21141 20.5136H5.75195V22.9731H8.21141V20.5136Z" fill="black"/>
<path d="M8.21141 22.9728H5.75195V25.4322H8.21141V22.9728Z" fill="black"/>
<path d="M8.21141 25.4319H5.75195V27.8913H8.21141V25.4319Z" fill="black"/>
<path d="M8.21141 27.8924H5.75195V30.3519H8.21141V27.8924Z" fill="black"/>
<path d="M8.21141 30.3515H5.75195V32.811H8.21141V30.3515Z" fill="black"/>
<path d="M8.21141 37.7303H5.75195V40.1897H8.21141V37.7303Z" fill="black"/>
<path d="M8.21141 47.5681H5.75195V50.0276H8.21141V47.5681Z" fill="black"/>
<path d="M8.21141 50.0273H5.75195V52.4867H8.21141V50.0273Z" fill="black"/>
<path d="M8.21141 54.9455H5.75195V57.405H8.21141V54.9455Z" fill="black"/>
<path d="M8.21141 59.8651H5.75195V62.3246H8.21141V59.8651Z" fill="black"/>
<path d="M8.21141 62.3243H5.75195V64.7837H8.21141V62.3243Z" fill="black"/>
<path d="M8.21141 64.7834H5.75195V67.2428H8.21141V64.7834Z" fill="black"/>
<path d="M8.21141 69.703H5.75195V72.1625H8.21141V69.703Z" fill="black"/>
<path d="M10.6553 0.837891H8.1958V3.29735H10.6553V0.837891Z" fill="black"/>
<path d="M10.6553 5.7561H8.1958V8.21556H10.6553V5.7561Z" fill="black"/>
<path d="M10.6553 8.21661H8.1958V10.6761H10.6553V8.21661Z" fill="black"/>
<path d="M10.6553 10.6758H8.1958V13.1352H10.6553V10.6758Z" fill="black"/>
<path d="M10.6553 15.594H8.1958V18.0535H10.6553V15.594Z" fill="black"/>
<path d="M10.6553 20.5136H8.1958V22.9731H10.6553V20.5136Z" fill="black"/>
<path d="M10.6553 25.4319H8.1958V27.8913H10.6553V25.4319Z" fill="black"/>
<path d="M10.6553 27.8924H8.1958V30.3519H10.6553V27.8924Z" fill="black"/>
<path d="M10.6553 30.3515H8.1958V32.811H10.6553V30.3515Z" fill="black"/>
<path d="M10.6553 32.8106H8.1958V35.2701H10.6553V32.8106Z" fill="black"/>
<path d="M10.6553 35.2698H8.1958V37.7292H10.6553V35.2698Z" fill="black"/>
<path d="M10.6553 37.7303H8.1958V40.1897H10.6553V37.7303Z" fill="black"/>
<path d="M10.6553 45.1076H8.1958V47.5671H10.6553V45.1076Z" fill="black"/>
<path d="M10.6553 47.5681H8.1958V50.0276H10.6553V47.5681Z" fill="black"/>
<path d="M10.6553 50.0273H8.1958V52.4867H10.6553V50.0273Z" fill="black"/>
<path d="M10.6553 54.9455H8.1958V57.405H10.6553V54.9455Z" fill="black"/>
<path d="M10.6553 59.8651H8.1958V62.3246H10.6553V59.8651Z" fill="black"/>
<path d="M10.6553 62.3243H8.1958V64.7837H10.6553V62.3243Z" fill="black"/>
<path d="M10.6553 64.7834H8.1958V67.2428H10.6553V64.7834Z" fill="black"/>
<path d="M10.6553 69.703H8.1958V72.1625H10.6553V69.703Z" fill="black"/>
<path d="M13.0991 0.837891H10.6396V3.29735H13.0991V0.837891Z" fill="black"/>
<path d="M13.0991 5.7561H10.6396V8.21556H13.0991V5.7561Z" fill="black"/>
<path d="M13.0991 8.21661H10.6396V10.6761H13.0991V8.21661Z" fill="black"/>
<path d="M13.0991 10.6758H10.6396V13.1352H13.0991V10.6758Z" fill="black"/>
<path d="M13.0991 15.594H10.6396V18.0535H13.0991V15.594Z" fill="black"/>
<path d="M13.0991 22.9728H10.6396V25.4322H13.0991V22.9728Z" fill="black"/>
<path d="M13.0991 32.8106H10.6396V35.2701H13.0991V32.8106Z" fill="black"/>
<path d="M13.0991 37.7303H10.6396V40.1897H13.0991V37.7303Z" fill="black"/>
<path d="M13.0991 40.1894H10.6396V42.6489H13.0991V40.1894Z" fill="black"/>
<path d="M13.0991 42.6485H10.6396V45.108H13.0991V42.6485Z" fill="black"/>
<path d="M13.0991 45.1076H10.6396V47.5671H13.0991V45.1076Z" fill="black"/>
<path d="M13.0991 47.5681H10.6396V50.0276H13.0991V47.5681Z" fill="black"/>
<path d="M13.0991 54.9455H10.6396V57.405H13.0991V54.9455Z" fill="black"/>
<path d="M13.0991 59.8651H10.6396V62.3246H13.0991V59.8651Z" fill="black"/>
<path d="M13.0991 62.3243H10.6396V64.7837H13.0991V62.3243Z" fill="black"/>
<path d="M13.0991 64.7834H10.6396V67.2428H13.0991V64.7834Z" fill="black"/>
<path d="M13.0991 69.703H10.6396V72.1625H13.0991V69.703Z" fill="black"/>
<path d="M15.5874 0.837891H13.1279V3.29735H15.5874V0.837891Z" fill="black"/>
<path d="M15.5874 15.594H13.1279V18.0535H15.5874V15.594Z" fill="black"/>
<path d="M15.5874 27.8924H13.1279V30.3519H15.5874V27.8924Z" fill="black"/>
<path d="M15.5874 30.3515H13.1279V32.811H15.5874V30.3515Z" fill="black"/>
<path d="M15.5874 35.2698H13.1279V37.7292H15.5874V35.2698Z" fill="black"/>
<path d="M15.5874 42.6485H13.1279V45.108H15.5874V42.6485Z" fill="black"/>
<path d="M15.5874 45.1076H13.1279V47.5671H15.5874V45.1076Z" fill="black"/>
<path d="M15.5874 47.5681H13.1279V50.0276H15.5874V47.5681Z" fill="black"/>
<path d="M15.5874 50.0273H13.1279V52.4867H15.5874V50.0273Z" fill="black"/>
<path d="M15.5874 54.9455H13.1279V57.405H15.5874V54.9455Z" fill="black"/>
<path d="M15.5874 69.703H13.1279V72.1625H15.5874V69.703Z" fill="black"/>
<path d="M18.0312 0.837891H15.5718V3.29735H18.0312V0.837891Z" fill="black"/>
<path d="M18.0312 3.297H15.5718V5.75646H18.0312V3.297Z" fill="black"/>
<path d="M18.0312 5.7561H15.5718V8.21556H18.0312V5.7561Z" fill="black"/>
<path d="M18.0312 8.21661H15.5718V10.6761H18.0312V8.21661Z" fill="black"/>
<path d="M18.0312 10.6758H15.5718V13.1352H18.0312V10.6758Z" fill="black"/>
<path d="M18.0312 13.1349H15.5718V15.5943H18.0312V13.1349Z" fill="black"/>
<path d="M18.0312 15.594H15.5718V18.0535H18.0312V15.594Z" fill="black"/>
<path d="M18.0312 20.5136H15.5718V22.9731H18.0312V20.5136Z" fill="black"/>
<path d="M18.0312 25.4319H15.5718V27.8913H18.0312V25.4319Z" fill="black"/>
<path d="M18.0312 30.3515H15.5718V32.811H18.0312V30.3515Z" fill="black"/>
<path d="M18.0312 35.2698H15.5718V37.7292H18.0312V35.2698Z" fill="black"/>
<path d="M18.0312 40.1894H15.5718V42.6489H18.0312V40.1894Z" fill="black"/>
<path d="M18.0312 45.1076H15.5718V47.5671H18.0312V45.1076Z" fill="black"/>
<path d="M18.0312 50.0273H15.5718V52.4867H18.0312V50.0273Z" fill="black"/>
<path d="M18.0312 54.9455H15.5718V57.405H18.0312V54.9455Z" fill="black"/>
<path d="M18.0312 57.406H15.5718V59.8655H18.0312V57.406Z" fill="black"/>
<path d="M18.0312 59.8651H15.5718V62.3246H18.0312V59.8651Z" fill="black"/>
<path d="M18.0312 62.3243H15.5718V64.7837H18.0312V62.3243Z" fill="black"/>
<path d="M18.0312 64.7834H15.5718V67.2428H18.0312V64.7834Z" fill="black"/>
<path d="M18.0312 67.2439H15.5718V69.7034H18.0312V67.2439Z" fill="black"/>
<path d="M18.0312 69.703H15.5718V72.1625H18.0312V69.703Z" fill="black"/>
<path d="M20.4751 22.9728H18.0156V25.4322H20.4751V22.9728Z" fill="black"/>
<path d="M20.4751 25.4319H18.0156V27.8913H20.4751V25.4319Z" fill="black"/>
<path d="M20.4751 47.5681H18.0156V50.0276H20.4751V47.5681Z" fill="black"/>
<path d="M22.9634 0.837891H20.5039V3.29735H22.9634V0.837891Z" fill="black"/>
<path d="M22.9634 5.7561H20.5039V8.21556H22.9634V5.7561Z" fill="black"/>
<path d="M22.9634 8.21661H20.5039V10.6761H22.9634V8.21661Z" fill="black"/>
<path d="M22.9634 10.6758H20.5039V13.1352H22.9634V10.6758Z" fill="black"/>
<path d="M22.9634 15.594H20.5039V18.0535H22.9634V15.594Z" fill="black"/>
<path d="M22.9634 20.5136H20.5039V22.9731H22.9634V20.5136Z" fill="black"/>
<path d="M22.9634 25.4319H20.5039V27.8913H22.9634V25.4319Z" fill="black"/>
<path d="M22.9634 27.8924H20.5039V30.3519H22.9634V27.8924Z" fill="black"/>
<path d="M22.9634 35.2698H20.5039V37.7292H22.9634V35.2698Z" fill="black"/>
<path d="M22.9634 40.1894H20.5039V42.6489H22.9634V40.1894Z" fill="black"/>
<path d="M22.9634 42.6485H20.5039V45.108H22.9634V42.6485Z" fill="black"/>
<path d="M22.9634 47.5681H20.5039V50.0276H22.9634V47.5681Z" fill="black"/>
<path d="M22.9634 52.4864H20.5039V54.9458H22.9634V52.4864Z" fill="black"/>
<path d="M22.9634 62.3243H20.5039V64.7837H22.9634V62.3243Z" fill="black"/>
<path d="M22.9634 64.7834H20.5039V67.2428H22.9634V64.7834Z" fill="black"/>
<path d="M22.9634 67.2439H20.5039V69.7034H22.9634V67.2439Z" fill="black"/>
<path d="M22.9634 69.703H20.5039V72.1625H22.9634V69.703Z" fill="black"/>
<path d="M25.4072 3.297H22.9478V5.75646H25.4072V3.297Z" fill="black"/>
<path d="M25.4072 5.7561H22.9478V8.21556H25.4072V5.7561Z" fill="black"/>
<path d="M25.4072 8.21661H22.9478V10.6761H25.4072V8.21661Z" fill="black"/>
<path d="M25.4072 25.4319H22.9478V27.8913H25.4072V25.4319Z" fill="black"/>
<path d="M25.4072 27.8924H22.9478V30.3519H25.4072V27.8924Z" fill="black"/>
<path d="M25.4072 30.3515H22.9478V32.811H25.4072V30.3515Z" fill="black"/>
<path d="M25.4072 32.8106H22.9478V35.2701H25.4072V32.8106Z" fill="black"/>
<path d="M25.4072 35.2698H22.9478V37.7292H25.4072V35.2698Z" fill="black"/>
<path d="M25.4072 42.6485H22.9478V45.108H25.4072V42.6485Z" fill="black"/>
<path d="M25.4072 45.1076H22.9478V47.5671H25.4072V45.1076Z" fill="black"/>
<path d="M25.4072 50.0273H22.9478V52.4867H25.4072V50.0273Z" fill="black"/>
<path d="M25.4072 52.4864H22.9478V54.9458H25.4072V52.4864Z" fill="black"/>
<path d="M25.4072 59.8651H22.9478V62.3246H25.4072V59.8651Z" fill="black"/>
<path d="M25.4072 64.7834H22.9478V67.2428H25.4072V64.7834Z" fill="black"/>
<path d="M25.4072 69.703H22.9478V72.1625H25.4072V69.703Z" fill="black"/>
<path d="M27.8955 0.837891H25.436V3.29735H27.8955V0.837891Z" fill="black"/>
<path d="M27.8955 3.297H25.436V5.75646H27.8955V3.297Z" fill="black"/>
<path d="M27.8955 5.7561H25.436V8.21556H27.8955V5.7561Z" fill="black"/>
<path d="M27.8955 8.21661H25.436V10.6761H27.8955V8.21661Z" fill="black"/>
<path d="M27.8955 13.1349H25.436V15.5943H27.8955V13.1349Z" fill="black"/>
<path d="M27.8955 15.594H25.436V18.0535H27.8955V15.594Z" fill="black"/>
<path d="M27.8955 18.0545H25.436V20.514H27.8955V18.0545Z" fill="black"/>
<path d="M27.8955 20.5136H25.436V22.9731H27.8955V20.5136Z" fill="black"/>
<path d="M27.8955 22.9728H25.436V25.4322H27.8955V22.9728Z" fill="black"/>
<path d="M27.8955 25.4319H25.436V27.8913H27.8955V25.4319Z" fill="black"/>
<path d="M27.8955 27.8924H25.436V30.3519H27.8955V27.8924Z" fill="black"/>
<path d="M27.8955 30.3515H25.436V32.811H27.8955V30.3515Z" fill="black"/>
<path d="M27.8955 35.2698H25.436V37.7292H27.8955V35.2698Z" fill="black"/>
<path d="M27.8955 37.7303H25.436V40.1897H27.8955V37.7303Z" fill="black"/>
<path d="M27.8955 50.0273H25.436V52.4867H27.8955V50.0273Z" fill="black"/>
<path d="M27.8955 57.406H25.436V59.8655H27.8955V57.406Z" fill="black"/>
<path d="M27.8955 59.8651H25.436V62.3246H27.8955V59.8651Z" fill="black"/>
<path d="M27.8955 62.3243H25.436V64.7837H27.8955V62.3243Z" fill="black"/>
<path d="M27.8955 64.7834H25.436V67.2428H27.8955V64.7834Z" fill="black"/>
<path d="M27.8955 69.703H25.436V72.1625H27.8955V69.703Z" fill="black"/>
<path d="M30.3393 3.297H27.8799V5.75646H30.3393V3.297Z" fill="black"/>
<path d="M30.3393 10.6758H27.8799V13.1352H30.3393V10.6758Z" fill="black"/>
<path d="M30.3393 13.1349H27.8799V15.5943H30.3393V13.1349Z" fill="black"/>
<path d="M30.3393 20.5136H27.8799V22.9731H30.3393V20.5136Z" fill="black"/>
<path d="M30.3393 25.4319H27.8799V27.8913H30.3393V25.4319Z" fill="black"/>
<path d="M30.3393 32.8106H27.8799V35.2701H30.3393V32.8106Z" fill="black"/>
<path d="M30.3393 35.2698H27.8799V37.7292H30.3393V35.2698Z" fill="black"/>
<path d="M30.3393 37.7303H27.8799V40.1897H30.3393V37.7303Z" fill="black"/>
<path d="M30.3393 47.5681H27.8799V50.0276H30.3393V47.5681Z" fill="black"/>
<path d="M30.3393 57.406H27.8799V59.8655H30.3393V57.406Z" fill="black"/>
<path d="M30.3393 59.8651H27.8799V62.3246H30.3393V59.8651Z" fill="black"/>
<path d="M30.3393 62.3243H27.8799V64.7837H30.3393V62.3243Z" fill="black"/>
<path d="M30.3393 69.703H27.8799V72.1625H30.3393V69.703Z" fill="black"/>
<path d="M32.7832 0.837891H30.3237V3.29735H32.7832V0.837891Z" fill="black"/>
<path d="M32.7832 3.297H30.3237V5.75646H32.7832V3.297Z" fill="black"/>
<path d="M32.7832 8.21661H30.3237V10.6761H32.7832V8.21661Z" fill="black"/>
<path d="M32.7832 10.6758H30.3237V13.1352H32.7832V10.6758Z" fill="black"/>
<path d="M32.7832 15.594H30.3237V18.0535H32.7832V15.594Z" fill="black"/>
<path d="M32.7832 18.0545H30.3237V20.514H32.7832V18.0545Z" fill="black"/>
<path d="M32.7832 20.5136H30.3237V22.9731H32.7832V20.5136Z" fill="black"/>
<path d="M32.7832 22.9728H30.3237V25.4322H32.7832V22.9728Z" fill="black"/>
<path d="M32.7832 25.4319H30.3237V27.8913H32.7832V25.4319Z" fill="black"/>
<path d="M32.7832 30.3515H30.3237V32.811H32.7832V30.3515Z" fill="black"/>
<path d="M32.7832 32.8106H30.3237V35.2701H32.7832V32.8106Z" fill="black"/>
<path d="M32.7832 40.1894H30.3237V42.6489H32.7832V40.1894Z" fill="black"/>
<path d="M32.7832 57.406H30.3237V59.8655H32.7832V57.406Z" fill="black"/>
<path d="M32.7832 64.7834H30.3237V67.2428H32.7832V64.7834Z" fill="black"/>
<path d="M32.7832 67.2439H30.3237V69.7034H32.7832V67.2439Z" fill="black"/>
<path d="M35.2715 0.837891H32.812V3.29735H35.2715V0.837891Z" fill="black"/>
<path d="M35.2715 3.297H32.812V5.75646H35.2715V3.297Z" fill="black"/>
<path d="M35.2715 5.7561H32.812V8.21556H35.2715V5.7561Z" fill="black"/>
<path d="M35.2715 8.21661H32.812V10.6761H35.2715V8.21661Z" fill="black"/>
<path d="M35.2715 22.9728H32.812V25.4322H35.2715V22.9728Z" fill="black"/>
<path d="M35.2715 27.8924H32.812V30.3519H35.2715V27.8924Z" fill="black"/>
<path d="M35.2715 30.3515H32.812V32.811H35.2715V30.3515Z" fill="black"/>
<path d="M35.2715 40.1894H32.812V42.6489H35.2715V40.1894Z" fill="black"/>
<path d="M35.2715 42.6485H32.812V45.108H35.2715V42.6485Z" fill="black"/>
<path d="M35.2715 45.1076H32.812V47.5671H35.2715V45.1076Z" fill="black"/>
<path d="M35.2715 54.9455H32.812V57.405H35.2715V54.9455Z" fill="black"/>
<path d="M35.2715 57.406H32.812V59.8655H35.2715V57.406Z" fill="black"/>
<path d="M35.2715 62.3243H32.812V64.7837H35.2715V62.3243Z" fill="black"/>
<path d="M35.2715 67.2439H32.812V69.7034H35.2715V67.2439Z" fill="black"/>
<path d="M37.7153 5.7561H35.2559V8.21556H37.7153V5.7561Z" fill="black"/>
<path d="M37.7153 8.21661H35.2559V10.6761H37.7153V8.21661Z" fill="black"/>
<path d="M37.7153 15.594H35.2559V18.0535H37.7153V15.594Z" fill="black"/>
<path d="M37.7153 18.0545H35.2559V20.514H37.7153V18.0545Z" fill="black"/>
<path d="M37.7153 27.8924H35.2559V30.3519H37.7153V27.8924Z" fill="black"/>
<path d="M37.7153 30.3515H35.2559V32.811H37.7153V30.3515Z" fill="black"/>
<path d="M37.7153 37.7303H35.2559V40.1897H37.7153V37.7303Z" fill="black"/>
<path d="M37.7153 42.6485H35.2559V45.108H37.7153V42.6485Z" fill="black"/>
<path d="M37.7153 45.1076H35.2559V47.5671H37.7153V45.1076Z" fill="black"/>
<path d="M37.7153 47.5681H35.2559V50.0276H37.7153V47.5681Z" fill="black"/>
<path d="M37.7153 50.0273H35.2559V52.4867H37.7153V50.0273Z" fill="black"/>
<path d="M37.7153 57.406H35.2559V59.8655H37.7153V57.406Z" fill="black"/>
<path d="M37.7153 62.3243H35.2559V64.7837H37.7153V62.3243Z" fill="black"/>
<path d="M37.7153 64.7834H35.2559V67.2428H37.7153V64.7834Z" fill="black"/>
<path d="M40.1592 8.21661H37.6997V10.6761H40.1592V8.21661Z" fill="black"/>
<path d="M40.1592 10.6758H37.6997V13.1352H40.1592V10.6758Z" fill="black"/>
<path d="M40.1592 27.8924H37.6997V30.3519H40.1592V27.8924Z" fill="black"/>
<path d="M40.1592 30.3515H37.6997V32.811H40.1592V30.3515Z" fill="black"/>
<path d="M40.1592 32.8106H37.6997V35.2701H40.1592V32.8106Z" fill="black"/>
<path d="M40.1592 37.7303H37.6997V40.1897H40.1592V37.7303Z" fill="black"/>
<path d="M40.1592 42.6485H37.6997V45.108H40.1592V42.6485Z" fill="black"/>
<path d="M40.1592 45.1076H37.6997V47.5671H40.1592V45.1076Z" fill="black"/>
<path d="M40.1592 47.5681H37.6997V50.0276H40.1592V47.5681Z" fill="black"/>
<path d="M40.1592 50.0273H37.6997V52.4867H40.1592V50.0273Z" fill="black"/>
<path d="M40.1592 59.8651H37.6997V62.3246H40.1592V59.8651Z" fill="black"/>
<path d="M40.1592 62.3243H37.6997V64.7837H40.1592V62.3243Z" fill="black"/>
<path d="M42.6474 0.837891H40.188V3.29735H42.6474V0.837891Z" fill="black"/>
<path d="M42.6474 8.21661H40.188V10.6761H42.6474V8.21661Z" fill="black"/>
<path d="M42.6474 10.6758H40.188V13.1352H42.6474V10.6758Z" fill="black"/>
<path d="M42.6474 15.594H40.188V18.0535H42.6474V15.594Z" fill="black"/>
<path d="M42.6474 20.5136H40.188V22.9731H42.6474V20.5136Z" fill="black"/>
<path d="M42.6474 22.9728H40.188V25.4322H42.6474V22.9728Z" fill="black"/>
<path d="M42.6474 27.8924H40.188V30.3519H42.6474V27.8924Z" fill="black"/>
<path d="M42.6474 30.3515H40.188V32.811H42.6474V30.3515Z" fill="black"/>
<path d="M42.6474 32.8106H40.188V35.2701H42.6474V32.8106Z" fill="black"/>
<path d="M42.6474 37.7303H40.188V40.1897H42.6474V37.7303Z" fill="black"/>
<path d="M42.6474 47.5681H40.188V50.0276H42.6474V47.5681Z" fill="black"/>
<path d="M42.6474 50.0273H40.188V52.4867H42.6474V50.0273Z" fill="black"/>
<path d="M42.6474 52.4864H40.188V54.9458H42.6474V52.4864Z" fill="black"/>
<path d="M42.6474 54.9455H40.188V57.405H42.6474V54.9455Z" fill="black"/>
<path d="M42.6474 62.3243H40.188V64.7837H42.6474V62.3243Z" fill="black"/>
<path d="M42.6474 67.2439H40.188V69.7034H42.6474V67.2439Z" fill="black"/>
<path d="M45.0913 8.21661H42.6318V10.6761H45.0913V8.21661Z" fill="black"/>
<path d="M45.0913 18.0545H42.6318V20.514H45.0913V18.0545Z" fill="black"/>
<path d="M45.0913 20.5136H42.6318V22.9731H45.0913V20.5136Z" fill="black"/>
<path d="M45.0913 30.3515H42.6318V32.811H45.0913V30.3515Z" fill="black"/>
<path d="M45.0913 35.2698H42.6318V37.7292H45.0913V35.2698Z" fill="black"/>
<path d="M45.0913 47.5681H42.6318V50.0276H45.0913V47.5681Z" fill="black"/>
<path d="M45.0913 50.0273H42.6318V52.4867H45.0913V50.0273Z" fill="black"/>
<path d="M45.0913 54.9455H42.6318V57.405H45.0913V54.9455Z" fill="black"/>
<path d="M45.0913 59.8651H42.6318V62.3246H45.0913V59.8651Z" fill="black"/>
<path d="M47.5351 8.21661H45.0757V10.6761H47.5351V8.21661Z" fill="black"/>
<path d="M47.5351 13.1349H45.0757V15.5943H47.5351V13.1349Z" fill="black"/>
<path d="M47.5351 15.594H45.0757V18.0535H47.5351V15.594Z" fill="black"/>
<path d="M47.5351 18.0545H45.0757V20.514H47.5351V18.0545Z" fill="black"/>
<path d="M47.5351 20.5136H45.0757V22.9731H47.5351V20.5136Z" fill="black"/>
<path d="M47.5351 22.9728H45.0757V25.4322H47.5351V22.9728Z" fill="black"/>
<path d="M47.5351 27.8924H45.0757V30.3519H47.5351V27.8924Z" fill="black"/>
<path d="M47.5351 35.2698H45.0757V37.7292H47.5351V35.2698Z" fill="black"/>
<path d="M47.5351 40.1894H45.0757V42.6489H47.5351V40.1894Z" fill="black"/>
<path d="M47.5351 50.0273H45.0757V52.4867H47.5351V50.0273Z" fill="black"/>
<path d="M47.5351 52.4864H45.0757V54.9458H47.5351V52.4864Z" fill="black"/>
<path d="M47.5351 54.9455H45.0757V57.405H47.5351V54.9455Z" fill="black"/>
<path d="M47.5351 57.406H45.0757V59.8655H47.5351V57.406Z" fill="black"/>
<path d="M47.5351 59.8651H45.0757V62.3246H47.5351V59.8651Z" fill="black"/>
<path d="M47.5351 64.7834H45.0757V67.2428H47.5351V64.7834Z" fill="black"/>
<path d="M47.5351 69.703H45.0757V72.1625H47.5351V69.703Z" fill="black"/>
<path d="M50.0234 0.837891H47.564V3.29735H50.0234V0.837891Z" fill="black"/>
<path d="M50.0234 5.7561H47.564V8.21556H50.0234V5.7561Z" fill="black"/>
<path d="M50.0234 10.6758H47.564V13.1352H50.0234V10.6758Z" fill="black"/>
<path d="M50.0234 13.1349H47.564V15.5943H50.0234V13.1349Z" fill="black"/>
<path d="M50.0234 18.0545H47.564V20.514H50.0234V18.0545Z" fill="black"/>
<path d="M50.0234 22.9728H47.564V25.4322H50.0234V22.9728Z" fill="black"/>
<path d="M50.0234 27.8924H47.564V30.3519H50.0234V27.8924Z" fill="black"/>
<path d="M50.0234 30.3515H47.564V32.811H50.0234V30.3515Z" fill="black"/>
<path d="M50.0234 32.8106H47.564V35.2701H50.0234V32.8106Z" fill="black"/>
<path d="M50.0234 35.2698H47.564V37.7292H50.0234V35.2698Z" fill="black"/>
<path d="M50.0234 37.7303H47.564V40.1897H50.0234V37.7303Z" fill="black"/>
<path d="M50.0234 40.1894H47.564V42.6489H50.0234V40.1894Z" fill="black"/>
<path d="M50.0234 47.5681H47.564V50.0276H50.0234V47.5681Z" fill="black"/>
<path d="M50.0234 50.0273H47.564V52.4867H50.0234V50.0273Z" fill="black"/>
<path d="M50.0234 54.9455H47.564V57.405H50.0234V54.9455Z" fill="black"/>
<path d="M52.4673 0.837891H50.0078V3.29735H52.4673V0.837891Z" fill="black"/>
<path d="M52.4673 8.21661H50.0078V10.6761H52.4673V8.21661Z" fill="black"/>
<path d="M52.4673 13.1349H50.0078V15.5943H52.4673V13.1349Z" fill="black"/>
<path d="M52.4673 15.594H50.0078V18.0535H52.4673V15.594Z" fill="black"/>
<path d="M52.4673 27.8924H50.0078V30.3519H52.4673V27.8924Z" fill="black"/>
<path d="M52.4673 35.2698H50.0078V37.7292H52.4673V35.2698Z" fill="black"/>
<path d="M52.4673 37.7303H50.0078V40.1897H52.4673V37.7303Z" fill="black"/>
<path d="M52.4673 40.1894H50.0078V42.6489H52.4673V40.1894Z" fill="black"/>
<path d="M52.4673 42.6485H50.0078V45.108H52.4673V42.6485Z" fill="black"/>
<path d="M52.4673 45.1076H50.0078V47.5671H52.4673V45.1076Z" fill="black"/>
<path d="M52.4673 47.5681H50.0078V50.0276H52.4673V47.5681Z" fill="black"/>
<path d="M52.4673 50.0273H50.0078V52.4867H52.4673V50.0273Z" fill="black"/>
<path d="M52.4673 52.4864H50.0078V54.9458H52.4673V52.4864Z" fill="black"/>
<path d="M52.4673 54.9455H50.0078V57.405H52.4673V54.9455Z" fill="black"/>
<path d="M52.4673 57.406H50.0078V59.8655H52.4673V57.406Z" fill="black"/>
<path d="M52.4673 59.8651H50.0078V62.3246H52.4673V59.8651Z" fill="black"/>
<path d="M52.4673 64.7834H50.0078V67.2428H52.4673V64.7834Z" fill="black"/>
<path d="M52.4673 67.2439H50.0078V69.7034H52.4673V67.2439Z" fill="black"/>
<path d="M52.4673 69.703H50.0078V72.1625H52.4673V69.703Z" fill="black"/>
<path d="M54.9111 20.5136H52.4517V22.9731H54.9111V20.5136Z" fill="black"/>
<path d="M54.9111 22.9728H52.4517V25.4322H54.9111V22.9728Z" fill="black"/>
<path d="M54.9111 27.8924H52.4517V30.3519H54.9111V27.8924Z" fill="black"/>
<path d="M54.9111 35.2698H52.4517V37.7292H54.9111V35.2698Z" fill="black"/>
<path d="M54.9111 37.7303H52.4517V40.1897H54.9111V37.7303Z" fill="black"/>
<path d="M54.9111 40.1894H52.4517V42.6489H54.9111V40.1894Z" fill="black"/>
<path d="M54.9111 47.5681H52.4517V50.0276H54.9111V47.5681Z" fill="black"/>
<path d="M54.9111 50.0273H52.4517V52.4867H54.9111V50.0273Z" fill="black"/>
<path d="M54.9111 59.8651H52.4517V62.3246H54.9111V59.8651Z" fill="black"/>
<path d="M54.9111 62.3243H52.4517V64.7837H54.9111V62.3243Z" fill="black"/>
<path d="M54.9111 64.7834H52.4517V67.2428H54.9111V64.7834Z" fill="black"/>
<path d="M57.3994 0.837891H54.9399V3.29735H57.3994V0.837891Z" fill="black"/>
<path d="M57.3994 3.297H54.9399V5.75646H57.3994V3.297Z" fill="black"/>
<path d="M57.3994 5.7561H54.9399V8.21556H57.3994V5.7561Z" fill="black"/>
<path d="M57.3994 8.21661H54.9399V10.6761H57.3994V8.21661Z" fill="black"/>
<path d="M57.3994 10.6758H54.9399V13.1352H57.3994V10.6758Z" fill="black"/>
<path d="M57.3994 13.1349H54.9399V15.5943H57.3994V13.1349Z" fill="black"/>
<path d="M57.3994 15.594H54.9399V18.0535H57.3994V15.594Z" fill="black"/>
<path d="M57.3994 22.9728H54.9399V25.4322H57.3994V22.9728Z" fill="black"/>
<path d="M57.3994 27.8924H54.9399V30.3519H57.3994V27.8924Z" fill="black"/>
<path d="M57.3994 32.8106H54.9399V35.2701H57.3994V32.8106Z" fill="black"/>
<path d="M57.3994 37.7303H54.9399V40.1897H57.3994V37.7303Z" fill="black"/>
<path d="M57.3994 50.0273H54.9399V52.4867H57.3994V50.0273Z" fill="black"/>
<path d="M57.3994 54.9455H54.9399V57.405H57.3994V54.9455Z" fill="black"/>
<path d="M57.3994 59.8651H54.9399V62.3246H57.3994V59.8651Z" fill="black"/>
<path d="M59.8432 0.837891H57.3838V3.29735H59.8432V0.837891Z" fill="black"/>
<path d="M59.8432 15.594H57.3838V18.0535H59.8432V15.594Z" fill="black"/>
<path d="M59.8432 22.9728H57.3838V25.4322H59.8432V22.9728Z" fill="black"/>
<path d="M59.8432 25.4319H57.3838V27.8913H59.8432V25.4319Z" fill="black"/>
<path d="M59.8432 27.8924H57.3838V30.3519H59.8432V27.8924Z" fill="black"/>
<path d="M59.8432 42.6485H57.3838V45.108H59.8432V42.6485Z" fill="black"/>
<path d="M59.8432 47.5681H57.3838V50.0276H59.8432V47.5681Z" fill="black"/>
<path d="M59.8432 50.0273H57.3838V52.4867H59.8432V50.0273Z" fill="black"/>
<path d="M59.8432 59.8651H57.3838V62.3246H59.8432V59.8651Z" fill="black"/>
<path d="M59.8432 64.7834H57.3838V67.2428H59.8432V64.7834Z" fill="black"/>
<path d="M59.8432 67.2439H57.3838V69.7034H59.8432V67.2439Z" fill="black"/>
<path d="M59.8432 69.703H57.3838V72.1625H59.8432V69.703Z" fill="black"/>
<path d="M62.2871 0.837891H59.8276V3.29735H62.2871V0.837891Z" fill="black"/>
<path d="M62.2871 5.7561H59.8276V8.21556H62.2871V5.7561Z" fill="black"/>
<path d="M62.2871 8.21661H59.8276V10.6761H62.2871V8.21661Z" fill="black"/>
<path d="M62.2871 10.6758H59.8276V13.1352H62.2871V10.6758Z" fill="black"/>
<path d="M62.2871 15.594H59.8276V18.0535H62.2871V15.594Z" fill="black"/>
<path d="M62.2871 20.5136H59.8276V22.9731H62.2871V20.5136Z" fill="black"/>
<path d="M62.2871 22.9728H59.8276V25.4322H62.2871V22.9728Z" fill="black"/>
<path d="M62.2871 27.8924H59.8276V30.3519H62.2871V27.8924Z" fill="black"/>
<path d="M62.2871 37.7303H59.8276V40.1897H62.2871V37.7303Z" fill="black"/>
<path d="M62.2871 40.1894H59.8276V42.6489H62.2871V40.1894Z" fill="black"/>
<path d="M62.2871 50.0273H59.8276V52.4867H62.2871V50.0273Z" fill="black"/>
<path d="M62.2871 52.4864H59.8276V54.9458H62.2871V52.4864Z" fill="black"/>
<path d="M62.2871 54.9455H59.8276V57.405H62.2871V54.9455Z" fill="black"/>
<path d="M62.2871 57.406H59.8276V59.8655H62.2871V57.406Z" fill="black"/>
<path d="M62.2871 59.8651H59.8276V62.3246H62.2871V59.8651Z" fill="black"/>
<path d="M62.2871 62.3243H59.8276V64.7837H62.2871V62.3243Z" fill="black"/>
<path d="M62.2871 67.2439H59.8276V69.7034H62.2871V67.2439Z" fill="black"/>
<path d="M64.7754 0.837891H62.3159V3.29735H64.7754V0.837891Z" fill="black"/>
<path d="M64.7754 5.7561H62.3159V8.21556H64.7754V5.7561Z" fill="black"/>
<path d="M64.7754 8.21661H62.3159V10.6761H64.7754V8.21661Z" fill="black"/>
<path d="M64.7754 10.6758H62.3159V13.1352H64.7754V10.6758Z" fill="black"/>
<path d="M64.7754 15.594H62.3159V18.0535H64.7754V15.594Z" fill="black"/>
<path d="M64.7754 20.5136H62.3159V22.9731H64.7754V20.5136Z" fill="black"/>
<path d="M64.7754 30.3515H62.3159V32.811H64.7754V30.3515Z" fill="black"/>
<path d="M64.7754 40.1894H62.3159V42.6489H64.7754V40.1894Z" fill="black"/>
<path d="M64.7754 42.6485H62.3159V45.108H64.7754V42.6485Z" fill="black"/>
<path d="M64.7754 50.0273H62.3159V52.4867H64.7754V50.0273Z" fill="black"/>
<path d="M64.7754 52.4864H62.3159V54.9458H64.7754V52.4864Z" fill="black"/>
<path d="M64.7754 54.9455H62.3159V57.405H64.7754V54.9455Z" fill="black"/>
<path d="M64.7754 57.406H62.3159V59.8655H64.7754V57.406Z" fill="black"/>
<path d="M64.7754 62.3243H62.3159V64.7837H64.7754V62.3243Z" fill="black"/>
<path d="M64.7754 67.2439H62.3159V69.7034H64.7754V67.2439Z" fill="black"/>
<path d="M64.7754 69.703H62.3159V72.1625H64.7754V69.703Z" fill="black"/>
<path d="M67.2192 0.837891H64.7598V3.29735H67.2192V0.837891Z" fill="black"/>
<path d="M67.2192 5.7561H64.7598V8.21556H67.2192V5.7561Z" fill="black"/>
<path d="M67.2192 8.21661H64.7598V10.6761H67.2192V8.21661Z" fill="black"/>
<path d="M67.2192 10.6758H64.7598V13.1352H67.2192V10.6758Z" fill="black"/>
<path d="M67.2192 15.594H64.7598V18.0535H67.2192V15.594Z" fill="black"/>
<path d="M67.2192 20.5136H64.7598V22.9731H67.2192V20.5136Z" fill="black"/>
<path d="M67.2192 25.4319H64.7598V27.8913H67.2192V25.4319Z" fill="black"/>
<path d="M67.2192 30.3515H64.7598V32.811H67.2192V30.3515Z" fill="black"/>
<path d="M67.2192 32.8106H64.7598V35.2701H67.2192V32.8106Z" fill="black"/>
<path d="M67.2192 35.2698H64.7598V37.7292H67.2192V35.2698Z" fill="black"/>
<path d="M67.2192 42.6485H64.7598V45.108H67.2192V42.6485Z" fill="black"/>
<path d="M67.2192 45.1076H64.7598V47.5671H67.2192V45.1076Z" fill="black"/>
<path d="M67.2192 47.5681H64.7598V50.0276H67.2192V47.5681Z" fill="black"/>
<path d="M67.2192 50.0273H64.7598V52.4867H67.2192V50.0273Z" fill="black"/>
<path d="M67.2192 52.4864H64.7598V54.9458H67.2192V52.4864Z" fill="black"/>
<path d="M67.2192 59.8651H64.7598V62.3246H67.2192V59.8651Z" fill="black"/>
<path d="M67.2192 64.7834H64.7598V67.2428H67.2192V64.7834Z" fill="black"/>
<path d="M69.6631 0.837891H67.2036V3.29735H69.6631V0.837891Z" fill="black"/>
<path d="M69.6631 15.594H67.2036V18.0535H69.6631V15.594Z" fill="black"/>
<path d="M69.6631 25.4319H67.2036V27.8913H69.6631V25.4319Z" fill="black"/>
<path d="M69.6631 32.8106H67.2036V35.2701H69.6631V32.8106Z" fill="black"/>
<path d="M69.6631 35.2698H67.2036V37.7292H69.6631V35.2698Z" fill="black"/>
<path d="M69.6631 37.7303H67.2036V40.1897H69.6631V37.7303Z" fill="black"/>
<path d="M69.6631 40.1894H67.2036V42.6489H69.6631V40.1894Z" fill="black"/>
<path d="M69.6631 42.6485H67.2036V45.108H69.6631V42.6485Z" fill="black"/>
<path d="M69.6631 52.4864H67.2036V54.9458H69.6631V52.4864Z" fill="black"/>
<path d="M69.6631 54.9455H67.2036V57.405H69.6631V54.9455Z" fill="black"/>
<path d="M69.6631 59.8651H67.2036V62.3246H69.6631V59.8651Z" fill="black"/>
<path d="M69.6631 67.2439H67.2036V69.7034H69.6631V67.2439Z" fill="black"/>
<path d="M69.6631 69.703H67.2036V72.1625H69.6631V69.703Z" fill="black"/>
<path d="M72.1514 0.837891H69.6919V3.29735H72.1514V0.837891Z" fill="black"/>
<path d="M72.1514 3.297H69.6919V5.75646H72.1514V3.297Z" fill="black"/>
<path d="M72.1514 5.7561H69.6919V8.21556H72.1514V5.7561Z" fill="black"/>
<path d="M72.1514 8.21661H69.6919V10.6761H72.1514V8.21661Z" fill="black"/>
<path d="M72.1514 10.6758H69.6919V13.1352H72.1514V10.6758Z" fill="black"/>
<path d="M72.1514 13.1349H69.6919V15.5943H72.1514V13.1349Z" fill="black"/>
<path d="M72.1514 15.594H69.6919V18.0535H72.1514V15.594Z" fill="black"/>
<path d="M72.1514 20.5136H69.6919V22.9731H72.1514V20.5136Z" fill="black"/>
<path d="M72.1514 22.9728H69.6919V25.4322H72.1514V22.9728Z" fill="black"/>
<path d="M72.1514 27.8924H69.6919V30.3519H72.1514V27.8924Z" fill="black"/>
<path d="M72.1514 32.8106H69.6919V35.2701H72.1514V32.8106Z" fill="black"/>
<path d="M72.1514 35.2698H69.6919V37.7292H72.1514V35.2698Z" fill="black"/>
<path d="M72.1514 52.4864H69.6919V54.9458H72.1514V52.4864Z" fill="black"/>
<path d="M72.1514 59.8651H69.6919V62.3246H72.1514V59.8651Z" fill="black"/>
<path d="M72.1514 62.3243H69.6919V64.7837H72.1514V62.3243Z" fill="black"/>
<path d="M72.1514 64.7834H69.6919V67.2428H72.1514V64.7834Z" fill="black"/>
</svg>
